# xmcd CD database file
#
# Track frame offsets:
#	150
#	17261
#	47302
#	66547
#	91815
#	111443
#	131353
#	149421
#	172626
#	209023
#	250900
#
# Disc length: 3899 seconds
#
# Revision: 0
# Processed by: cddbd v1.5.2PL0 Copyright (c) Steve Scherf et al.
# Submitted via: CDex 1.79
#
DISCID=910f390b
DTITLE=Shooter Jennings - The Other Live
DYEAR=2013
DGENRE=Country
TTITLE0=A Hard Lesson To Learn
TTITLE1=Isis
TTITLE2=The Low Road
TTITLE3=Mama, It's Just My Medicine
TTITLE4=Old Friend
TTITLE5=Outlaw You
TTITLE6=Solid Country Gold - The Outsider
TTITLE7=The White Trash Song
TTITLE8=Something In The Way
TTITLE9=Wake Up!
TTITLE10=The Gunslinger
EXTD=YEAR: 2013
EXTT0=
EXTT1=
EXTT2=
EXTT3=
EXTT4=
EXTT5=
EXTT6=
EXTT7=
EXTT8=
EXTT9=
EXTT10=
PLAYORDER=
